<?xml version="1.0" encoding="iso-8859-1"?>
<!-- Generator: Adobe Illustrator 19.0.0, SVG Export Plug-In . SVG Version: 6.00 Build 0)  -->
<svg version="1.1" id="Capa_1" xmlns="http://www.w3.org/2000/svg" xmlns:xlink="http://www.w3.org/1999/xlink" x="0px" y="0px"
	 viewBox="0 0 512 512" style="enable-background:new 0 0 512 512;" xml:space="preserve">
<path style="fill:#FF4F19;" d="M120,318.794h-18c-56.243,0-102-45.757-102-102s45.757-102,102-102h18V318.794z"/>
<path style="fill:#FF3200;" d="M0,216.794c0,56.243,45.757,102,102,102h18v-102H0z"/>
<path style="fill:#FF7A53;" d="M105,262.794h-3c-24.91,0-48.546-3.534-66.553-9.95C6.149,242.405,0,227.479,0,216.794
	s6.149-25.611,35.447-36.05c18.007-6.417,41.643-9.95,66.553-9.95h3v30h-3c-19.018,0-37.349,2.351-51.615,6.62
	c-11.618,3.477-17.357,7.284-19.571,9.38c2.214,2.096,7.953,5.903,19.571,9.38c14.267,4.269,32.598,6.62,51.615,6.62h3V262.794z"/>
<path style="fill:#A81300;" d="M50.385,226.174c-11.618-3.477-17.357-7.284-19.571-9.38H0c0,10.684,6.149,25.611,35.447,36.05
	c18.007,6.417,41.643,9.95,66.553,9.95h3v-30h-3C82.982,232.794,64.651,230.443,50.385,226.174z"/>
<path style="fill:#FFDB2D;" d="M466,261.794h-46v-92h46c25.364,0,46,20.636,46,46S491.364,261.794,466,261.794z"/>
<path style="fill:#FF9A00;" d="M420,261.794h46c25.364,0,46-20.636,46-46h-92V261.794z"/>
<path style="fill:#FF4F19;" d="M450,392.383l-210-78.167V119.373l210-78.167V392.383z"/>
<polygon style="fill:#FF3200;" points="240,216.794 240,314.216 450,392.383 450,216.794 "/>
<path style="fill:#FFF5CB;" d="M270,318.794H90v-204h180V318.794z"/>
<path style="fill:#A17852;" d="M186,470.794c-27.57,0-50-22.43-50-50v-132h100v132C236,448.365,213.57,470.794,186,470.794z"/>
<rect x="90" y="216.79" style="fill:#FFDBA9;" width="180" height="102"/>
<g>
</g>
<g>
</g>
<g>
</g>
<g>
</g>
<g>
</g>
<g>
</g>
<g>
</g>
<g>
</g>
<g>
</g>
<g>
</g>
<g>
</g>
<g>
</g>
<g>
</g>
<g>
</g>
<g>
</g>
</svg>
