<?xml version="1.0" encoding="UTF-8"?>
<svg width="14px" height="14px" viewBox="0 0 14 14" version="1.1" xmlns="http://www.w3.org/2000/svg" xmlns:xlink="http://www.w3.org/1999/xlink">
    <title>Group</title>
    <g id="Desktop" stroke="none" stroke-width="1" fill="none" fill-rule="evenodd">
        <g id="Artboard-Copy-2" transform="translate(-635.000000, -357.000000)" fill-rule="nonzero">
            <g id="Group" transform="translate(635.000000, 357.000000)">
                <path d="M7,0 C3.134375,0 0,3.134375 0,7 C0,10.865625 3.134375,14 7,14 C10.865625,14 14,10.865625 14,7 C14,3.134375 10.865625,0 7,0 Z" id="Shape" fill="#FF9E33"></path>
                <path d="M6.125,3.609375 C6.125,4.09262416 6.51675084,4.484375 7,4.484375 C7.48324916,4.484375 7.875,4.09262416 7.875,3.609375 C7.875,3.12612584 7.48324916,2.734375 7,2.734375 C6.51675084,2.734375 6.125,3.12612584 6.125,3.609375 Z" id="Path" fill="#FFFFFF"></path>
                <path d="M7.65625,5.359375 L6.34375,5.359375 C6.2234375,5.359375 6.125,5.425 6.125,5.50520833 L6.125,10.4635417 C6.125,10.54375 6.2234375,10.609375 6.34375,10.609375 L7.65625,10.609375 C7.7765625,10.609375 7.875,10.54375 7.875,10.4635417 L7.875,5.50520833 C7.875,5.425 7.7765625,5.359375 7.65625,5.359375 Z" id="Path" fill="#FFFFFF"></path>
            </g>
        </g>
    </g>
</svg>